<svg xmlns="http://www.w3.org/2000/svg" xmlns:xlink="http://www.w3.org/1999/xlink" width="58pt" height="58pt" viewBox="0 0 58 58" version="1.1">
<g id="surface1">
<path style=" stroke:none;fill-rule:nonzero;fill:rgb(37.254902%,61.960784%,92.156863%);fill-opacity:1;" d="M 58 29 C 58 31.855469 57.585938 34.613281 56.820312 37.21875 C 55.019531 43.324219 51.261719 48.59375 46.273438 52.296875 C 41.449219 55.878906 35.472656 58 29 58 C 12.984375 58 0 45.015625 0 29 C 0 20.984375 3.253906 13.730469 8.507812 8.480469 C 13.753906 3.242188 21 0 29 0 C 35.007812 0 40.585938 1.828125 45.214844 4.953125 C 52.929688 10.164062 58 18.992188 58 29 Z M 58 29 "/>
<path style=" stroke:none;fill-rule:nonzero;fill:rgb(22.745098%,50.980392%,81.568627%);fill-opacity:1;" d="M 58 29 C 58 31.855469 57.585938 34.613281 56.820312 37.21875 C 55.019531 43.324219 51.261719 48.59375 46.273438 52.296875 C 41.449219 55.878906 35.472656 58 29 58 C 28.347656 58 27.699219 57.976562 27.054688 57.933594 C 32.777344 57.554688 38.046875 55.519531 42.382812 52.296875 C 47.371094 48.59375 51.125 43.324219 52.929688 37.21875 C 53.695312 34.613281 54.109375 31.855469 54.109375 29 C 54.109375 18.992188 49.039062 10.164062 41.324219 4.953125 C 37.199219 2.167969 32.316406 0.410156 27.050781 0.0625 C 27.695312 0.0234375 28.34375 0 29 0 C 35.007812 0 40.585938 1.828125 45.214844 4.953125 C 52.929688 10.164062 58 18.992188 58 29 Z M 58 29 "/>
<path style=" stroke:none;fill-rule:nonzero;fill:rgb(62.745098%,82.745098%,49.019608%);fill-opacity:1;" d="M 58 29 C 58 31.855469 57.585938 34.613281 56.820312 37.21875 L 51.65625 32.058594 C 51.488281 31.886719 51.269531 31.773438 51.03125 31.734375 L 45.109375 30.714844 C 44.875 30.671875 44.652344 30.558594 44.484375 30.390625 L 43.652344 29.558594 C 43.433594 29.339844 43.308594 29.042969 43.308594 28.730469 L 43.308594 20.734375 C 43.308594 20.425781 43.433594 20.128906 43.652344 19.910156 L 44.871094 18.691406 C 45.089844 18.46875 45.214844 18.171875 45.214844 17.863281 L 45.214844 4.953125 C 52.929688 10.164062 58 18.992188 58 29 Z M 58 29 "/>
<path style=" stroke:none;fill-rule:nonzero;fill:rgb(51.764706%,71.764706%,35.686275%);fill-opacity:1;" d="M 58 29 C 58 31.855469 57.585938 34.613281 56.820312 37.21875 L 53.667969 34.066406 C 53.957031 32.421875 54.109375 30.730469 54.109375 29 C 54.109375 20.789062 50.699219 13.378906 45.214844 8.101562 L 45.214844 4.953125 C 52.929688 10.164062 58 18.992188 58 29 Z M 58 29 "/>
<path style=" stroke:none;fill-rule:nonzero;fill:rgb(62.745098%,82.745098%,49.019608%);fill-opacity:1;" d="M 46.273438 46.605469 L 46.273438 52.296875 C 41.449219 55.878906 35.476562 58 29.007812 58 C 28.351562 58 27.703125 57.976562 27.058594 57.933594 C 12.171875 56.941406 0.253906 44.613281 0.00390625 29.488281 C -0.128906 21.28125 3.144531 13.835938 8.507812 8.480469 L 10.742188 14.675781 C 10.921875 15.175781 11.402344 15.511719 11.9375 15.511719 L 20.617188 15.511719 C 20.953125 15.511719 21.273438 15.648438 21.511719 15.886719 L 25.351562 19.726562 C 25.589844 19.960938 25.722656 20.285156 25.722656 20.621094 L 25.722656 35.347656 C 25.722656 35.683594 25.859375 36.007812 26.097656 36.246094 L 29.183594 39.332031 C 29.421875 39.570312 29.742188 39.703125 30.078125 39.703125 L 39.371094 39.703125 C 39.710938 39.703125 40.03125 39.835938 40.269531 40.074219 L 45.902344 45.703125 C 46.140625 45.945312 46.273438 46.265625 46.273438 46.605469 Z M 46.273438 46.605469 "/>
<path style=" stroke:none;fill-rule:nonzero;fill:rgb(51.764706%,71.764706%,35.686275%);fill-opacity:1;" d="M 46.273438 48.824219 L 46.273438 52.296875 C 41.449219 55.878906 35.476562 58 29.007812 58 C 28.351562 58 27.703125 57.976562 27.058594 57.933594 C 32.78125 57.554688 38.046875 55.515625 42.382812 52.296875 C 43.78125 51.257812 45.082031 50.09375 46.273438 48.824219 Z M 46.273438 48.824219 "/>
<path style=" stroke:none;fill-rule:nonzero;fill:rgb(92.156863%,34.117647%,46.666667%);fill-opacity:1;" d="M 36.0625 25.671875 C 36.0625 29.839844 29.875 41.011719 27.636719 44.917969 C 27.285156 45.53125 26.398438 45.53125 26.046875 44.917969 C 23.808594 41.011719 17.621094 29.839844 17.621094 25.671875 C 17.621094 20.578125 21.75 16.449219 26.84375 16.449219 C 31.933594 16.449219 36.0625 20.578125 36.0625 25.671875 Z M 36.0625 25.671875 "/>
<path style=" stroke:none;fill-rule:nonzero;fill:rgb(92.156863%,93.333333%,94.901961%);fill-opacity:1;" d="M 31.117188 24.679688 C 31.117188 27.039062 29.203125 28.953125 26.84375 28.953125 C 24.480469 28.953125 22.570312 27.039062 22.570312 24.679688 C 22.570312 22.316406 24.480469 20.40625 26.84375 20.40625 C 29.203125 20.40625 31.117188 22.316406 31.117188 24.679688 Z M 31.117188 24.679688 "/>
<path style=" stroke:none;fill-rule:nonzero;fill:rgb(37.254902%,61.960784%,92.156863%);fill-opacity:1;" d="M 13.296875 39.648438 L 11.195312 39.648438 C 10.714844 39.648438 10.324219 39.257812 10.324219 38.773438 C 10.324219 38.289062 10.714844 37.898438 11.195312 37.898438 L 13.296875 37.898438 C 13.78125 37.898438 14.171875 38.289062 14.171875 38.773438 C 14.171875 39.257812 13.78125 39.648438 13.296875 39.648438 Z M 13.296875 39.648438 "/>
<path style=" stroke:none;fill-rule:nonzero;fill:rgb(37.254902%,61.960784%,92.156863%);fill-opacity:1;" d="M 18.414062 42.890625 L 11.195312 42.890625 C 10.714844 42.890625 10.324219 42.5 10.324219 42.015625 C 10.324219 41.535156 10.714844 41.140625 11.195312 41.140625 L 18.414062 41.140625 C 18.898438 41.140625 19.289062 41.535156 19.289062 42.015625 C 19.289062 42.5 18.898438 42.890625 18.414062 42.890625 Z M 18.414062 42.890625 "/>
<path style=" stroke:none;fill-rule:nonzero;fill:rgb(37.254902%,61.960784%,92.156863%);fill-opacity:1;" d="M 18.414062 45.351562 L 11.195312 45.351562 C 10.714844 45.351562 10.324219 44.960938 10.324219 44.476562 C 10.324219 43.996094 10.714844 43.601562 11.195312 43.601562 L 18.414062 43.601562 C 18.898438 43.601562 19.289062 43.996094 19.289062 44.476562 C 19.289062 44.960938 18.898438 45.351562 18.414062 45.351562 Z M 18.414062 45.351562 "/>
</g>
</svg>